<?xml version="1.0" encoding="utf-8"?>
<!-- Generator: Adobe Illustrator 17.0.0, SVG Export Plug-In . SVG Version: 6.00 Build 0)  -->
<!DOCTYPE svg PUBLIC "-//W3C//DTD SVG 1.1//EN" "http://www.w3.org/Graphics/SVG/1.1/DTD/svg11.dtd">
<svg version="1.1" id="Capa_1" xmlns="http://www.w3.org/2000/svg" xmlns:xlink="http://www.w3.org/1999/xlink" x="0px" y="0px"
	 width="258px" height="85px" viewBox="0 0 258 85" enable-background="new 0 0 258 85" xml:space="preserve">
<g>
	<g>
		<path fill="#3F3938" d="M16.866,38.514l-0.178-7.234h-0.05c-0.152,0.914-0.304,1.574-0.418,2.069l-1.218,5.165h-2.45l-1.167-5.165
			c-0.114-0.495-0.267-1.155-0.432-2.069h-0.05l-0.115,7.234H9.264l0.33-8.566h2.855c0,0,0.94,4.315,1.434,7.082h0.038
			c0.572-2.754,1.688-7.082,1.688-7.082h2.805l0.33,8.566H16.866z"/>
		<path fill="#3F3938" d="M20.3,38.514v-5.026l-0.724-0.152v-1.041h2.374v6.218H20.3V38.514z M20.249,29.757h1.675v1.51h-1.675
			V29.757z"/>
		<path fill="#3F3938" d="M26.935,38.514v-3.693c0-0.939-0.356-1.384-1.117-1.384c-0.432,0-0.8,0.191-1.092,0.381v4.695h-1.663
			v-6.218h1.142l0.254,0.71c0.355-0.419,1.04-0.838,1.967-0.838c1.574,0,2.195,0.926,2.195,2.5v3.845h-1.686V38.514z"/>
		<path fill="#3F3938" d="M30.105,38.514v-5.026l-0.724-0.152v-1.041h2.374v6.218h-1.65V38.514z M30.054,29.757h1.675v1.51h-1.675
			V29.757z"/>
		<path fill="#3F3938" d="M34.316,33.932c0,0.964,2.69,0.672,2.69,2.703c0,1.13-0.838,2.005-2.449,2.005
			c-0.749,0-1.447-0.215-1.866-0.457l0.342-1.155c0.292,0.203,0.901,0.431,1.472,0.431c0.546,0,0.914-0.304,0.914-0.685
			c0-1.117-2.653-0.749-2.653-2.868c0-0.914,0.698-1.739,2.373-1.739c0.648,0,1.32,0.127,1.752,0.304l-0.228,1.206
			c-0.419-0.19-0.952-0.318-1.498-0.318C34.596,33.361,34.316,33.577,34.316,33.932z"/>
		<path fill="#3F3938" d="M40.227,38.64c-1.103,0-1.827-0.52-1.827-2.081v-3.083h-0.926v-1.18H38.4v-1.079l1.637-0.533v1.612H41.7
			v1.18h-1.663v3.045c0,0.432,0.216,0.71,0.66,0.71c0.342,0,0.698-0.101,0.952-0.228l0.254,1.218
			C41.535,38.437,40.887,38.64,40.227,38.64z"/>
		<path fill="#3F3938" d="M43.69,35.849c0,0.99,0.558,1.535,1.599,1.535c0.634,0,1.282-0.241,1.828-0.52l0.317,1.168
			c-0.52,0.279-1.37,0.609-2.347,0.609c-1.916,0-3.059-1.193-3.059-3.249c0-1.915,0.926-3.223,2.919-3.223
			c1.878,0,2.614,1.396,2.614,2.957v0.724L43.69,35.849L43.69,35.849z M44.857,33.386c-0.825,0-1.167,0.749-1.167,1.485h2.271
			C45.961,34.072,45.721,33.386,44.857,33.386z"/>
		<path fill="#3F3938" d="M51.96,33.678c-0.203-0.064-0.496-0.102-0.774-0.102c-0.444,0-0.838,0.19-1.117,0.419v4.518h-1.65v-6.218
			h1.155l0.178,0.837h0.038c0.19-0.444,0.749-0.952,1.485-0.952c0.33,0,0.584,0.051,0.724,0.089L51.96,33.678z"/>
		<path fill="#3F3938" d="M53.087,38.514v-5.026l-0.724-0.152v-1.041h2.374v6.218h-1.65V38.514z M53.037,29.757h1.675v1.51h-1.675
			V29.757z"/>
		<path fill="#3F3938" d="M61.449,35.391c0,2.12-1.066,3.249-2.92,3.249c-1.865,0-2.919-1.117-2.919-3.249
			c0-1.827,1.016-3.223,2.919-3.223C60.408,32.168,61.449,33.564,61.449,35.391z M59.748,35.391c0-1.497-0.444-2.017-1.218-2.017
			c-0.773,0-1.205,0.533-1.205,2.017c0,1.448,0.393,2.031,1.205,2.031C59.342,37.422,59.748,36.877,59.748,35.391z"/>
		<path fill="#3F3938" d="M68.741,32.778c-0.101-0.356-0.152-0.673-0.152-1.142v-1.878h1.65v8.756h-1.346l-0.19-0.686
			c-0.254,0.381-0.85,0.812-1.649,0.812c-1.41,0-2.538-1.015-2.538-3.235c0-2.056,1.167-3.237,2.677-3.237
			C67.866,32.168,68.399,32.396,68.741,32.778z M68.589,33.716c-0.254-0.152-0.647-0.304-1.129-0.304
			c-0.787,0-1.282,0.533-1.282,1.979c0,1.486,0.47,2.044,1.256,2.044c0.419,0,0.838-0.203,1.155-0.534V33.716z"/>
		<path fill="#3F3938" d="M72.774,35.849c0,0.99,0.558,1.535,1.599,1.535c0.634,0,1.282-0.241,1.828-0.52l0.317,1.168
			c-0.52,0.279-1.37,0.609-2.347,0.609c-1.916,0-3.059-1.193-3.059-3.249c0-1.915,0.926-3.223,2.919-3.223
			c1.878,0,2.614,1.396,2.614,2.957v0.724L72.774,35.849L72.774,35.849z M73.941,33.386c-0.824,0-1.167,0.749-1.167,1.485h2.271
			C75.045,34.072,74.805,33.386,73.941,33.386z"/>
		<path fill="#3F3938" d="M12.577,44.04v7.158h-1.726V44.04H8.782v-1.409h5.927v1.409H12.577z"/>
		<path fill="#3F3938" d="M17.651,46.362c-0.203-0.064-0.495-0.102-0.774-0.102c-0.444,0-0.838,0.19-1.117,0.419v4.518h-1.65v-6.218
			h1.155l0.178,0.837h0.038c0.19-0.444,0.748-0.952,1.485-0.952c0.33,0,0.584,0.051,0.724,0.089L17.651,46.362z"/>
		<path fill="#3F3938" d="M21.976,51.197l-0.228-0.736c-0.318,0.432-0.94,0.863-1.815,0.863c-1.244,0-2.082-0.799-2.082-1.992
			c0-1.155,0.85-1.839,2.348-1.839h1.307v-0.318c0-0.8-0.456-1.054-1.091-1.054c-0.736,0-1.358,0.191-1.866,0.419l-0.419-1.18
			c0.622-0.266,1.472-0.508,2.449-0.508c1.764,0,2.526,0.812,2.526,2.399v3.947L21.976,51.197L21.976,51.197z M21.507,48.481H20.48
			c-0.686,0-1.003,0.33-1.003,0.8c0,0.572,0.305,0.914,0.926,0.914c0.394,0,0.8-0.178,1.104-0.419V48.481z"/>
		<path fill="#3F3938" d="M28.027,51.197v-3.693c0-0.939-0.356-1.384-1.117-1.384c-0.432,0-0.8,0.191-1.092,0.381v4.695h-1.663
			v-6.218h1.142l0.254,0.71c0.355-0.419,1.04-0.838,1.967-0.838c1.574,0,2.195,0.926,2.195,2.5v3.845h-1.686V51.197z"/>
		<path fill="#3F3938" d="M32.123,46.616c0,0.964,2.691,0.672,2.691,2.703c0,1.13-0.838,2.005-2.449,2.005
			c-0.749,0-1.447-0.215-1.866-0.457l0.342-1.155c0.292,0.203,0.902,0.431,1.472,0.431c0.546,0,0.914-0.304,0.914-0.685
			c0-1.117-2.653-0.749-2.653-2.868c0-0.914,0.698-1.739,2.373-1.739c0.648,0,1.32,0.127,1.752,0.304l-0.228,1.206
			c-0.419-0.19-0.952-0.318-1.498-0.318C32.402,46.045,32.123,46.261,32.123,46.616z"/>
		<path fill="#3F3938" d="M37.413,51.743v1.865h-1.688v-8.629h1.434l0.126,0.672c0.28-0.394,0.94-0.8,1.638-0.8
			c1.459,0,2.499,1.04,2.499,3.223c0,2.146-1.269,3.249-2.715,3.249c-0.711,0-1.117-0.241-1.51-0.723
			C37.197,50.601,37.413,51.286,37.413,51.743z M37.413,49.485c0.254,0.355,0.647,0.621,1.091,0.621
			c0.749,0,1.256-0.533,1.256-2.031c0-1.485-0.469-2.005-1.218-2.005c-0.431,0-0.863,0.228-1.129,0.508V49.485z"/>
		<path fill="#3F3938" d="M47.88,48.075c0,2.12-1.066,3.249-2.92,3.249c-1.865,0-2.919-1.117-2.919-3.249
			c0-1.827,1.016-3.223,2.919-3.223C46.838,44.852,47.88,46.248,47.88,48.075z M46.178,48.075c0-1.497-0.444-2.017-1.218-2.017
			s-1.205,0.533-1.205,2.017c0,1.448,0.393,2.031,1.205,2.031S46.178,49.561,46.178,48.075z"/>
		<path fill="#3F3938" d="M52.266,46.362c-0.203-0.064-0.495-0.102-0.774-0.102c-0.444,0-0.838,0.19-1.117,0.419v4.518h-1.65v-6.218
			h1.155l0.178,0.837h0.038c0.19-0.444,0.749-0.952,1.485-0.952c0.33,0,0.584,0.051,0.724,0.089L52.266,46.362z"/>
		<path fill="#3F3938" d="M55.183,51.324c-1.104,0-1.828-0.52-1.828-2.081V46.16h-0.926v-1.18h0.926V43.9l1.637-0.533v1.612h1.662
			v1.18h-1.662v3.045c0,0.432,0.216,0.71,0.66,0.71c0.343,0,0.698-0.101,0.952-0.228l0.254,1.218
			C56.49,51.121,55.842,51.324,55.183,51.324z"/>
		<path fill="#3F3938" d="M58.644,48.533c0,0.99,0.558,1.535,1.599,1.535c0.634,0,1.282-0.241,1.828-0.52l0.317,1.168
			c-0.52,0.279-1.371,0.609-2.347,0.609c-1.917,0-3.059-1.193-3.059-3.249c0-1.915,0.926-3.223,2.919-3.223
			c1.878,0,2.615,1.396,2.615,2.957v0.724L58.644,48.533L58.644,48.533z M59.811,46.07c-0.825,0-1.167,0.749-1.167,1.485h2.271
			C60.916,46.756,60.675,46.07,59.811,46.07z"/>
		<path fill="#3F3938" d="M64.821,46.616c0,0.964,2.691,0.672,2.691,2.703c0,1.13-0.838,2.005-2.449,2.005
			c-0.749,0-1.447-0.215-1.866-0.457l0.342-1.155c0.292,0.203,0.902,0.431,1.472,0.431c0.546,0,0.914-0.304,0.914-0.685
			c0-1.117-2.653-0.749-2.653-2.868c0-0.914,0.698-1.739,2.373-1.739c0.648,0,1.32,0.127,1.752,0.304l-0.228,1.206
			c-0.419-0.19-0.952-0.318-1.498-0.318C65.1,46.045,64.821,46.261,64.821,46.616z"/>
		<path fill="#3F3938" d="M73.219,51.058l-1.156,0.203l-1.853-6.282h1.866l1.319,5.216h0.026l1.333-5.216h1.65l-1.916,6.37
			c-0.533,1.79-1.434,2.449-2.716,2.449c-0.698,0-1.485-0.393-1.751-0.621l0.52-1.13h0.152c0.051,0.038,0.572,0.444,1.155,0.444
			c0.66,0,1.092-0.456,1.32-1.256L73.219,51.058z"/>
		<path fill="#3F3938" d="M12.577,56.724v7.158h-1.726v-7.158H8.782v-1.409h5.927v1.409H12.577z"/>
		<path fill="#3F3938" d="M15.29,61.217c0,0.99,0.558,1.535,1.599,1.535c0.634,0,1.282-0.241,1.828-0.52l0.317,1.168
			c-0.52,0.279-1.371,0.609-2.347,0.609c-1.916,0-3.059-1.193-3.059-3.249c0-1.915,0.926-3.223,2.919-3.223
			c1.878,0,2.614,1.396,2.614,2.957v0.724L15.29,61.217L15.29,61.217z M16.457,58.754c-0.825,0-1.167,0.749-1.167,1.485h2.271
			C17.561,59.44,17.321,58.754,16.457,58.754z"/>
		<path fill="#3F3938" d="M24.982,63.463c-0.355,0.19-1.193,0.545-2.131,0.545c-1.853,0-2.97-1.053-2.97-3.235
			c0-2.031,1.117-3.237,2.957-3.237c0.826,0,1.536,0.165,2.132,0.508l-0.432,1.129c-0.444-0.266-1.015-0.38-1.561-0.38
			c-0.863,0-1.409,0.584-1.409,1.98c0,1.408,0.52,1.979,1.421,1.979c0.648,0,1.282-0.241,1.688-0.469L24.982,63.463z"/>
		<path fill="#3F3938" d="M31.287,60.759c0,2.12-1.066,3.249-2.92,3.249c-1.865,0-2.919-1.117-2.919-3.249
			c0-1.827,1.016-3.223,2.919-3.223C30.245,57.536,31.287,58.932,31.287,60.759z M29.585,60.759c0-1.497-0.444-2.017-1.218-2.017
			s-1.205,0.533-1.205,2.017c0,1.448,0.393,2.031,1.205,2.031C29.179,62.79,29.585,62.245,29.585,60.759z"/>
		<path fill="#3F3938" d="M32.159,62.231v-7.106h1.637v7.018c0,0.52,0.318,0.596,1.002,0.596v1.168c0,0-0.482,0.101-0.914,0.101
			C32.616,64.008,32.159,63.335,32.159,62.231z"/>
		<path fill="#3F3938" d="M36.916,61.217c0,0.99,0.558,1.535,1.599,1.535c0.634,0,1.282-0.241,1.828-0.52L40.66,63.4
			c-0.52,0.279-1.371,0.609-2.347,0.609c-1.916,0-3.058-1.193-3.058-3.249c0-1.915,0.926-3.223,2.919-3.223
			c1.878,0,2.615,1.396,2.615,2.957v0.724L36.916,61.217L36.916,61.217z M38.084,58.754c-0.825,0-1.167,0.749-1.167,1.485h2.271
			C39.188,59.44,38.947,58.754,38.084,58.754z"/>
		<path fill="#3F3938" d="M46.608,63.463c-0.355,0.19-1.193,0.545-2.131,0.545c-1.853,0-2.97-1.053-2.97-3.235
			c0-2.031,1.117-3.237,2.957-3.237c0.825,0,1.536,0.165,2.132,0.508l-0.432,1.129c-0.444-0.266-1.015-0.38-1.561-0.38
			c-0.863,0-1.408,0.584-1.408,1.98c0,1.408,0.52,1.979,1.421,1.979c0.648,0,1.282-0.241,1.688-0.469L46.608,63.463z"/>
		<path fill="#3F3938" d="M52.912,60.759c0,2.12-1.066,3.249-2.92,3.249c-1.865,0-2.919-1.117-2.919-3.249
			c0-1.827,1.016-3.223,2.919-3.223C51.871,57.536,52.912,58.932,52.912,60.759z M51.211,60.759c0-1.497-0.444-2.017-1.218-2.017
			s-1.205,0.533-1.205,2.017c0,1.448,0.393,2.031,1.205,2.031C50.805,62.79,51.211,62.245,51.211,60.759z"/>
		<path fill="#3F3938" d="M59.266,60.036v3.845h-1.675v-3.693c0-0.939-0.343-1.384-1.117-1.384c-0.432,0-0.762,0.191-1.054,0.381
			v4.695h-1.662v-6.218h1.117l0.28,0.723c0.355-0.432,0.964-0.85,1.84-0.85c1.015,0,1.624,0.304,1.941,0.876
			c0.368-0.444,1.016-0.876,1.878-0.876c1.777,0,2.297,0.926,2.297,2.5v3.845h-1.687v-3.693c0-0.939-0.394-1.384-1.168-1.384
			c-0.406,0-0.774,0.191-1.054,0.381C59.254,59.44,59.266,59.732,59.266,60.036z"/>
		<path fill="#3F3938" d="M68.411,63.881l-0.254-0.762c-0.292,0.381-0.952,0.888-1.942,0.888c-1.548,0-2.259-0.863-2.259-2.576
			v-3.769h1.65v3.782c0,0.952,0.342,1.294,1.091,1.294c0.432,0,0.825-0.165,1.117-0.368v-4.708h1.687v6.218h-1.09V63.881z"/>
		<path fill="#3F3938" d="M74.36,63.881v-3.693c0-0.939-0.356-1.384-1.117-1.384c-0.432,0-0.8,0.191-1.092,0.381v4.695h-1.662
			v-6.218h1.142l0.254,0.71c0.355-0.419,1.04-0.838,1.967-0.838c1.574,0,2.196,0.926,2.196,2.5v3.845H74.36V63.881z"/>
		<path fill="#3F3938" d="M77.529,63.881v-5.026l-0.724-0.152v-1.041h2.374v6.218h-1.65V63.881z M77.478,55.125h1.675v1.51h-1.675
			V55.125z"/>
		<path fill="#3F3938" d="M85.255,63.463c-0.355,0.19-1.193,0.545-2.131,0.545c-1.853,0-2.97-1.053-2.97-3.235
			c0-2.031,1.117-3.237,2.957-3.237c0.826,0,1.536,0.165,2.132,0.508l-0.432,1.129c-0.444-0.266-1.015-0.38-1.561-0.38
			c-0.863,0-1.408,0.584-1.408,1.98c0,1.408,0.52,1.979,1.421,1.979c0.648,0,1.282-0.241,1.688-0.469L85.255,63.463z"/>
		<path fill="#3F3938" d="M89.808,63.881l-0.228-0.736c-0.318,0.432-0.94,0.863-1.815,0.863c-1.244,0-2.082-0.799-2.082-1.992
			c0-1.155,0.85-1.839,2.348-1.839h1.307v-0.318c0-0.8-0.457-1.054-1.091-1.054c-0.736,0-1.358,0.191-1.866,0.419l-0.419-1.18
			c0.622-0.266,1.472-0.508,2.449-0.508c1.764,0,2.526,0.812,2.526,2.399v3.947L89.808,63.881L89.808,63.881z M89.339,61.165h-1.027
			c-0.686,0-1.003,0.33-1.003,0.8c0,0.572,0.305,0.914,0.926,0.914c0.394,0,0.8-0.178,1.104-0.419V61.165z"/>
		<path fill="#3F3938" d="M96.95,63.463c-0.355,0.19-1.193,0.545-2.131,0.545c-1.853,0-2.97-1.053-2.97-3.235
			c0-2.031,1.117-3.237,2.957-3.237c0.826,0,1.536,0.165,2.132,0.508l-0.432,1.129c-0.444-0.266-1.015-0.38-1.561-0.38
			c-0.863,0-1.408,0.584-1.408,1.98c0,1.408,0.52,1.979,1.421,1.979c0.648,0,1.282-0.241,1.688-0.469L96.95,63.463z"/>
		<path fill="#3F3938" d="M98.178,63.881v-5.026l-0.724-0.152v-1.041h2.374v6.218h-1.65V63.881z M98.128,55.125h1.675v1.51h-1.675
			V55.125z"/>
		<path fill="#3F3938" d="M106.54,60.759c0,2.12-1.066,3.249-2.92,3.249c-1.865,0-2.919-1.117-2.919-3.249
			c0-1.827,1.016-3.223,2.919-3.223C105.499,57.536,106.54,58.932,106.54,60.759z M104.839,60.759c0-1.497-0.444-2.017-1.218-2.017
			c-0.773,0-1.205,0.533-1.205,2.017c0,1.448,0.393,2.031,1.205,2.031C104.433,62.79,104.839,62.245,104.839,60.759z"/>
		<path fill="#3F3938" d="M111.258,63.881v-3.693c0-0.939-0.356-1.384-1.117-1.384c-0.432,0-0.8,0.191-1.092,0.381v4.695h-1.662
			v-6.218h1.142l0.254,0.71c0.355-0.419,1.04-0.838,1.967-0.838c1.574,0,2.196,0.926,2.196,2.5v3.845h-1.688V63.881z"/>
		<path fill="#3F3938" d="M115.341,61.217c0,0.99,0.558,1.535,1.599,1.535c0.634,0,1.282-0.241,1.828-0.52l0.317,1.168
			c-0.52,0.279-1.37,0.609-2.347,0.609c-1.916,0-3.059-1.193-3.059-3.249c0-1.915,0.926-3.223,2.919-3.223
			c1.878,0,2.614,1.396,2.614,2.957v0.724L115.341,61.217L115.341,61.217z M116.508,58.754c-0.824,0-1.167,0.749-1.167,1.485h2.271
			C117.612,59.44,117.371,58.754,116.508,58.754z"/>
		<path fill="#3F3938" d="M121.516,59.3c0,0.964,2.691,0.672,2.691,2.703c0,1.13-0.838,2.005-2.449,2.005
			c-0.749,0-1.447-0.215-1.866-0.457l0.342-1.155c0.292,0.203,0.901,0.431,1.472,0.431c0.546,0,0.914-0.304,0.914-0.685
			c0-1.117-2.653-0.749-2.653-2.868c0-0.914,0.698-1.739,2.373-1.739c0.648,0,1.32,0.127,1.752,0.304l-0.228,1.206
			c-0.419-0.19-0.952-0.318-1.498-0.318C121.796,58.728,121.516,58.944,121.516,59.3z"/>
	</g>
	<rect x="128.41" y="30.441" fill="#3F3938" width="0.453" height="34.201"/>
	<g>
		<path fill="#3F3938" d="M144.639,53.861c-4.823,0-7.412-3.198-7.412-8.909c0-5.331,2.564-8.732,7.412-8.732
			c2.335,0,4.442,0.508,5.838,1.447l-1.269,2.691c-0.888-0.685-2.437-1.193-4.213-1.193c-2.843,0-4.265,2.005-4.265,5.761
			c0,3.959,1.422,5.99,4.213,5.99c1.676,0,3.351-0.71,4.519-1.573l1.065,2.69C148.826,53.2,146.898,53.861,144.639,53.861z"/>
		<path fill="#3F3938" d="M159.175,53.861c-5.661,0-7.285-4.289-7.285-8.96c0-4.492,1.574-8.68,7.285-8.68
			c5.812,0,7.335,4.137,7.335,8.68C166.51,49.495,164.835,53.861,159.175,53.861z M159.175,39.089c-2.996,0-3.782,2.715-3.782,5.786
			c0,3.402,0.762,6.193,3.782,6.193c2.944,0,3.807-2.741,3.807-6.193C162.983,41.754,162.17,39.089,159.175,39.089z"/>
		<path fill="#3F3938" d="M177.517,53.607l-5.33-13.478h-0.102l0.228,13.478h-2.995V36.474h5.101l5.407,13.757h0.101l-0.228-13.757
			h3.071v17.133H177.517z"/>
		<path fill="#3F3938" d="M188.041,53.607h-3.249l4.645-17.133h5.533l4.492,17.133h-3.731l-0.888-3.858h-5.888L188.041,53.607z
			 M191.442,39.393l-1.878,7.666h4.671l-1.752-7.666H191.442z"/>
		<path fill="#3F3938" d="M206.003,53.861c-2.285,0-4.213-0.812-5.585-1.828l1.27-2.614c0.99,0.863,2.791,1.649,4.365,1.649
			s2.64-0.964,2.64-2.259c0-3.629-7.919-1.827-7.919-7.868c0-2.589,2.031-4.721,6.041-4.721c2.005,0,3.705,0.432,5.101,1.168
			l-1.117,2.665c-0.94-0.558-2.462-0.94-4.036-0.94c-1.548,0-2.563,0.508-2.563,1.778c0,3.071,7.97,1.877,7.97,7.716
			C212.171,51.322,209.912,53.861,206.003,53.861z"/>
		<path fill="#3F3938" d="M214.878,53.607V36.474h10.534v2.817h-7.209v4.213h5.508l-0.254,2.944h-5.255v4.391h7.209v2.767
			L214.878,53.607L214.878,53.607z"/>
		<path fill="#3F3938" d="M234.415,39.291v14.315h-3.452V39.291h-4.137v-2.817h11.853v2.817H234.415z"/>
	</g>
	<rect x="-0.015" y="0.317" fill="#0B489D" width="128.651" height="7.474"/>
	<rect x="128.654" y="0.317" fill="#FC1A23" width="129.331" height="7.474"/>
</g>
</svg>
